<svg xmlns="http://www.w3.org/2000/svg" width="80.567" height="80.567" viewBox="0 0 80.567 80.567">
  <path id="Path_1" data-name="Path 1" d="M597.228,484.765a40.27,40.27,0,1,0,0,30.824,40.317,40.317,0,0,0,0-30.824m-55.352,22.928a19.641,19.641,0,1,1,25.662,10.629,19.5,19.5,0,0,1-25.662-10.629m32.237-41.537h0l-5.256,12.689a22.942,22.942,0,0,0-17.671,0l-5.257-12.69a36.593,36.593,0,0,1,28.184,0m-48.1,19.936,12.673,5.249h0a22.938,22.938,0,0,0,0,17.671L526,514.269a36.708,36.708,0,0,1,.016-28.177M545.93,534.2h0l5.265-12.713a22.921,22.921,0,0,0,17.662.023l5.256,12.69a36.582,36.582,0,0,1-28.183,0m48.112-19.929h0l-12.689-5.256a22.929,22.929,0,0,0,0-17.671l12.689-5.257a36.584,36.584,0,0,1,0,28.184" transform="translate(-519.749 -459.904)" fill="#456ff6"/>
</svg>
