<svg id="Group_1" data-name="Group 1" xmlns="http://www.w3.org/2000/svg" width="81.408" height="63.885" viewBox="0 0 81.408 63.885">
  <path id="Path_2" data-name="Path 2" d="M626.129,470.84h-1.653a.519.519,0,0,1-.556-.413l-.541-1.828H619.4l-.541,1.828a.53.53,0,0,1-.556.413h-1.637c-.349,0-.525-.206-.4-.572l3.465-10.141a.546.546,0,0,1,.556-.413h2.178a.563.563,0,0,1,.572.413l3.5,10.141c.112.366-.063.572-.413.572m-3.354-4.26-1.4-4.737-1.383,4.737Z" transform="translate(-616.232 -459.125)" fill="#fff"/>
  <path id="Path_3" data-name="Path 3" d="M642.943,466.644v4.515a.451.451,0,0,1-.493.492H641.02a.455.455,0,0,1-.508-.492v-4.34a1.205,1.205,0,0,0-1.192-1.367c-.78,0-1.272.6-1.272,1.558v4.149a.451.451,0,0,1-.494.492h-1.43a.455.455,0,0,1-.508-.492v-4.34a1.206,1.206,0,0,0-1.193-1.367c-.763,0-1.255.588-1.272,1.51l.016,4.2a.444.444,0,0,1-.493.492h-1.43a.444.444,0,0,1-.493-.492V464.2a.445.445,0,0,1,.493-.493h1.145a.452.452,0,0,1,.493.493v.747a2.463,2.463,0,0,1,2.368-1.462,2.767,2.767,0,0,0,4.88,0c1.732,0,2.813,1.24,2.813,3.163" transform="translate(-619.36 -459.937)" fill="#fff"/>
  <path id="Path_4" data-name="Path 4" d="M647.911,467.614c0-2.5,1.447-4.133,4.021-4.133,2.368,0,3.8,1.383,3.943,4.229a.433.433,0,0,1-.477.509h-4.913c.144,1.176.748,1.891,1.78,1.891a1.38,1.38,0,0,0,1.257-.652.573.573,0,0,1,.619-.3l1.113.191c.334.048.493.271.35.588a3.567,3.567,0,0,1-3.513,1.924,3.9,3.9,0,0,1-4.181-4.245m5.4-.747c-.127-1.065-.573-1.653-1.383-1.653-.827,0-1.319.572-1.447,1.653Z" transform="translate(-623.058 -459.937)" fill="#fff"/>
  <path id="Path_5" data-name="Path 5" d="M664.794,463.9v1.431a.352.352,0,0,1-.366.4h-.1a2.069,2.069,0,0,0-2.209,2.209l.016,3.228a.444.444,0,0,1-.493.493h-1.431a.444.444,0,0,1-.493-.493V464.2a.444.444,0,0,1,.493-.493h1.049a.452.452,0,0,1,.493.493l-.016,1.32a2.667,2.667,0,0,1,2.511-2.019h.128a.365.365,0,0,1,.414.4" transform="translate(-625.603 -459.941)" fill="#fff"/>
  <path id="Path_6" data-name="Path 6" d="M667.341,460.33a1.359,1.359,0,1,1,1.367,1.367,1.357,1.357,0,0,1-1.367-1.367m2.083,10.349h-1.431a.445.445,0,0,1-.493-.493v-6.963a.445.445,0,0,1,.493-.493h1.431a.444.444,0,0,1,.493.493v6.963a.444.444,0,0,1-.493.493" transform="translate(-627.245 -458.963)" fill="#fff"/>
  <path id="Path_7" data-name="Path 7" d="M676.358,463.481a3.542,3.542,0,0,1,3.64,2.432c.111.319-.064.525-.381.588l-1.287.206a.512.512,0,0,1-.6-.366,1.323,1.323,0,0,0-1.256-.906c-.906,0-1.478.843-1.478,2.226,0,1.367.556,2.225,1.51,2.225a1.29,1.29,0,0,0,1.287-1.032.493.493,0,0,1,.572-.4l1.3.191a.452.452,0,0,1,.4.6,3.5,3.5,0,0,1-3.672,2.591c-2.433,0-3.943-1.606-3.943-4.181s1.51-4.181,3.911-4.181" transform="translate(-628.345 -459.937)" fill="#fff"/>
  <path id="Path_8" data-name="Path 8" d="M690.639,466.391v4.769a.445.445,0,0,1-.493.492h-1.128a.444.444,0,0,1-.493-.492V470.6a2.832,2.832,0,0,1-2.558,1.256c-1.669,0-2.718-.906-2.718-2.353,0-1.558,1.223-2.528,3.242-2.528a5.411,5.411,0,0,1,1.764.271v-.827a1.074,1.074,0,0,0-1.1-1.224,1.173,1.173,0,0,0-1.065.6c-.174.254-.318.366-.6.333l-1.384-.222c-.333-.064-.492-.286-.349-.6a3.5,3.5,0,0,1,3.417-1.827c2.13,0,3.466,1.112,3.466,2.909m-2.385,2.448v-.3a3.274,3.274,0,0,0-1.287-.27c-.81,0-1.3.366-1.3.985,0,.588.429.953,1.16.953a1.3,1.3,0,0,0,1.431-1.367" transform="translate(-630.672 -459.937)" fill="#fff"/>
  <path id="Path_9" data-name="Path 9" d="M702.2,466.644v4.515a.444.444,0,0,1-.493.492h-1.431a.444.444,0,0,1-.493-.492v-4.324a1.25,1.25,0,0,0-1.272-1.383,1.369,1.369,0,0,0-1.335,1.526l.016,4.181a.444.444,0,0,1-.493.492h-1.431a.443.443,0,0,1-.492-.492V464.2a.444.444,0,0,1,.492-.493h1.145a.452.452,0,0,1,.492.493v.731a2.558,2.558,0,0,1,2.448-1.447c1.732,0,2.845,1.24,2.845,3.163" transform="translate(-633.156 -459.937)" fill="#fff"/>
  <path id="Path_10" data-name="Path 10" d="M624.846,482.609v1.256a.464.464,0,0,1-.508.493h-4.213V487.3h3.481a.444.444,0,0,1,.493.492v1.24a.456.456,0,0,1-.493.508h-3.5v3.211a.451.451,0,0,1-.493.493h-1.542a.444.444,0,0,1-.493-.493V482.609a.444.444,0,0,1,.493-.493h6.264a.456.456,0,0,1,.508.493" transform="translate(-616.523 -463.952)" fill="#fff"/>
  <path id="Path_11" data-name="Path 11" d="M627.448,490.066a4.149,4.149,0,1,1,4.149,4.2,3.873,3.873,0,0,1-4.149-4.2m5.754,0c0-1.367-.62-2.241-1.606-2.241s-1.605.875-1.605,2.241c0,1.383.621,2.241,1.605,2.241s1.606-.858,1.606-2.241" transform="translate(-618.649 -464.764)" fill="#fff"/>
  <path id="Path_12" data-name="Path 12" d="M646.928,486.661v6.963a.456.456,0,0,1-.508.493h-1.1a.451.451,0,0,1-.493-.493v-.668a2.683,2.683,0,0,1-2.528,1.367c-1.669,0-2.718-1.017-2.718-3.115v-4.546a.444.444,0,0,1,.493-.493h1.431a.444.444,0,0,1,.493.493v4.371a1.179,1.179,0,0,0,1.24,1.3c.763,0,1.255-.556,1.272-1.447l-.016-4.228a.452.452,0,0,1,.494-.493h1.43a.456.456,0,0,1,.508.493" transform="translate(-621.264 -464.825)" fill="#fff"/>
  <path id="Path_13" data-name="Path 13" d="M658.739,489.048v4.515a.444.444,0,0,1-.493.492h-1.431a.444.444,0,0,1-.493-.492v-4.324a1.25,1.25,0,0,0-1.271-1.383,1.369,1.369,0,0,0-1.336,1.526l.016,4.181a.444.444,0,0,1-.493.492h-1.431a.443.443,0,0,1-.492-.492V486.6a.444.444,0,0,1,.492-.493h1.145a.452.452,0,0,1,.493.493v.731a2.557,2.557,0,0,1,2.448-1.447c1.732,0,2.845,1.24,2.845,3.163" transform="translate(-623.792 -464.764)" fill="#fff"/>
  <path id="Path_14" data-name="Path 14" d="M670.33,482V492.62a.444.444,0,0,1-.493.493h-1.145a.444.444,0,0,1-.493-.493v-.843a2.87,2.87,0,0,1-2.591,1.526c-1.971,0-3.211-1.606-3.211-4.165,0-2.576,1.24-4.2,3.227-4.2a2.814,2.814,0,0,1,2.289,1.081V482a.444.444,0,0,1,.493-.492h1.431a.444.444,0,0,1,.493.492m-2.416,7.122c0-1.367-.573-2.241-1.478-2.241-.923,0-1.494.875-1.494,2.241s.572,2.241,1.494,2.241c.905,0,1.478-.875,1.478-2.241" transform="translate(-626.18 -463.821)" fill="#fff"/>
  <path id="Path_15" data-name="Path 15" d="M681.764,488.794v4.769a.444.444,0,0,1-.493.492h-1.128a.444.444,0,0,1-.493-.492v-.557a2.834,2.834,0,0,1-2.559,1.256c-1.669,0-2.718-.906-2.718-2.353,0-1.558,1.223-2.528,3.242-2.528a5.413,5.413,0,0,1,1.764.271v-.827a1.073,1.073,0,0,0-1.1-1.224,1.173,1.173,0,0,0-1.065.6c-.174.254-.318.366-.6.333l-1.383-.222c-.333-.064-.493-.286-.349-.6a3.5,3.5,0,0,1,3.417-1.827c2.13,0,3.465,1.112,3.465,2.909m-2.384,2.448v-.3a3.277,3.277,0,0,0-1.287-.27c-.81,0-1.3.366-1.3.985,0,.588.429.953,1.16.953a1.3,1.3,0,0,0,1.431-1.367" transform="translate(-628.76 -464.764)" fill="#fff"/>
  <path id="Path_16" data-name="Path 16" d="M690.3,492.149v.985a.468.468,0,0,1-.508.508h-1.113a2.393,2.393,0,0,1-2.7-2.431l-.016-3.624h-.46a.444.444,0,0,1-.493-.493l-.016-.97a.452.452,0,0,1,.493-.493h.556l.652-1.59a.576.576,0,0,1,.588-.366h.588a.456.456,0,0,1,.508.493v1.463h1.256a.444.444,0,0,1,.493.493v.97a.444.444,0,0,1-.493.493h-1.24v3a.96.96,0,0,0,1.017,1.05h.382a.468.468,0,0,1,.508.508" transform="translate(-631.048 -464.288)" fill="#fff"/>
  <path id="Path_17" data-name="Path 17" d="M693.053,482.733a1.359,1.359,0,1,1,1.367,1.367,1.357,1.357,0,0,1-1.367-1.367m2.082,10.349H693.7a.445.445,0,0,1-.493-.493v-6.963a.445.445,0,0,1,.493-.493h1.431a.444.444,0,0,1,.493.493v6.963a.444.444,0,0,1-.493.493" transform="translate(-632.785 -463.79)" fill="#fff"/>
  <path id="Path_18" data-name="Path 18" d="M698.158,490.066a4.149,4.149,0,1,1,4.149,4.2,3.874,3.874,0,0,1-4.149-4.2m5.754,0c0-1.367-.62-2.241-1.605-2.241s-1.606.875-1.606,2.241c0,1.383.62,2.241,1.606,2.241s1.605-.858,1.605-2.241" transform="translate(-633.885 -464.764)" fill="#fff"/>
  <path id="Path_19" data-name="Path 19" d="M717.961,489.048v4.515a.444.444,0,0,1-.493.492h-1.431a.444.444,0,0,1-.493-.492v-4.324a1.25,1.25,0,0,0-1.272-1.383,1.368,1.368,0,0,0-1.334,1.526l.016,4.181a.444.444,0,0,1-.493.492h-1.43a.443.443,0,0,1-.493-.492V486.6a.445.445,0,0,1,.493-.493h1.145a.452.452,0,0,1,.493.493v.731a2.557,2.557,0,0,1,2.448-1.447c1.733,0,2.845,1.24,2.845,3.163" transform="translate(-636.553 -464.764)" fill="#fff"/>
  <path id="Path_20" data-name="Path 20" d="M642.371,512.37l1.574-.271a.542.542,0,0,1,.62.351,2.141,2.141,0,0,0,2.146,1.287c.985,0,1.573-.4,1.573-1.112,0-2.209-6.009-1.208-6.009-5.1,0-2.225,1.828-3.306,4.1-3.306a3.991,3.991,0,0,1,4.133,2.623c.095.319-.064.525-.4.588l-1.558.254a.523.523,0,0,1-.6-.35,1.742,1.742,0,0,0-1.654-1.081c-.922,0-1.462.509-1.462,1.113,0,1.987,6.024,1.1,6.024,5.008,0,2.1-1.605,3.417-4.116,3.417-2.543,0-4.165-1.193-4.737-2.83-.111-.318.048-.524.366-.588" transform="translate(-621.778 -468.714)" fill="#fff"/>
  <path id="Path_21" data-name="Path 21" d="M662.265,509.064v6.963a.456.456,0,0,1-.508.493h-1.1a.451.451,0,0,1-.492-.493v-.668a2.683,2.683,0,0,1-2.528,1.367c-1.669,0-2.718-1.017-2.718-3.116v-4.545a.444.444,0,0,1,.493-.493h1.431a.444.444,0,0,1,.493.493v4.371a1.178,1.178,0,0,0,1.24,1.3c.763,0,1.256-.555,1.272-1.447l-.016-4.228a.451.451,0,0,1,.493-.493h1.431a.456.456,0,0,1,.508.493" transform="translate(-624.569 -469.653)" fill="#fff"/>
  <path id="Path_22" data-name="Path 22" d="M666.448,505.136a1.359,1.359,0,1,1,1.367,1.367,1.357,1.357,0,0,1-1.367-1.367m2.083,10.349H667.1a.445.445,0,0,1-.493-.493v-6.963a.445.445,0,0,1,.493-.493h1.431a.444.444,0,0,1,.493.493v6.963a.444.444,0,0,1-.493.493" transform="translate(-627.052 -468.618)" fill="#fff"/>
  <path id="Path_23" data-name="Path 23" d="M675.465,508.288a3.542,3.542,0,0,1,3.64,2.432c.111.319-.063.525-.381.588l-1.287.206a.512.512,0,0,1-.6-.366,1.324,1.324,0,0,0-1.256-.906c-.906,0-1.478.843-1.478,2.226,0,1.367.556,2.225,1.51,2.225a1.287,1.287,0,0,0,1.287-1.032.494.494,0,0,1,.573-.4l1.3.191a.453.453,0,0,1,.4.6,3.5,3.5,0,0,1-3.672,2.591c-2.433,0-3.943-1.606-3.943-4.181s1.51-4.181,3.911-4.181" transform="translate(-628.153 -469.592)" fill="#fff"/>
  <path id="Path_24" data-name="Path 24" d="M682.677,505.136a1.359,1.359,0,1,1,1.367,1.367,1.357,1.357,0,0,1-1.367-1.367m2.082,10.349h-1.43a.445.445,0,0,1-.493-.493v-6.963a.445.445,0,0,1,.493-.493h1.43a.444.444,0,0,1,.493.493v6.963a.444.444,0,0,1-.493.493" transform="translate(-630.55 -468.618)" fill="#fff"/>
  <path id="Path_25" data-name="Path 25" d="M695.715,504.4v10.618a.444.444,0,0,1-.493.493h-1.144a.445.445,0,0,1-.494-.493v-.843a2.869,2.869,0,0,1-2.59,1.526c-1.971,0-3.211-1.605-3.211-4.164,0-2.576,1.24-4.2,3.227-4.2a2.813,2.813,0,0,1,2.288,1.081V504.4a.444.444,0,0,1,.493-.493h1.431a.444.444,0,0,1,.493.493m-2.416,7.121c0-1.367-.572-2.241-1.479-2.241s-1.494.875-1.494,2.241.572,2.241,1.494,2.241,1.479-.874,1.479-2.241" transform="translate(-631.65 -468.648)" fill="#fff"/>
  <path id="Path_26" data-name="Path 26" d="M699.716,512.42c0-2.495,1.447-4.132,4.021-4.132,2.369,0,3.8,1.382,3.942,4.228a.432.432,0,0,1-.477.509h-4.912c.144,1.177.748,1.892,1.781,1.892a1.378,1.378,0,0,0,1.255-.652.575.575,0,0,1,.621-.3l1.113.19c.333.049.492.271.349.588a3.567,3.567,0,0,1-3.513,1.924,3.9,3.9,0,0,1-4.181-4.245m5.4-.747c-.127-1.065-.572-1.653-1.383-1.653s-1.32.572-1.447,1.653Z" transform="translate(-634.221 -469.592)" fill="#fff"/>
  <path id="Path_27" data-name="Path 27" d="M626.054,529.588c0,2.241-1.589,3.672-4.117,3.672h-1.811v3.322a.451.451,0,0,1-.493.492h-1.558a.444.444,0,0,1-.493-.492V526.441a.445.445,0,0,1,.493-.493h3.862c2.528,0,4.117,1.4,4.117,3.64m-2.654,0a1.549,1.549,0,0,0-1.733-1.574h-1.542v3.18h1.542a1.564,1.564,0,0,0,1.733-1.606" transform="translate(-616.523 -473.397)" fill="#fff"/>
  <path id="Path_28" data-name="Path 28" d="M635.031,530.135v1.431a.351.351,0,0,1-.366.4h-.1a2.069,2.069,0,0,0-2.209,2.209l.016,3.228a.444.444,0,0,1-.492.492h-1.431a.444.444,0,0,1-.493-.492v-6.963a.446.446,0,0,1,.493-.493H631.5a.452.452,0,0,1,.493.493l-.016,1.32a2.667,2.667,0,0,1,2.511-2.019h.127a.365.365,0,0,1,.413.4" transform="translate(-619.19 -474.214)" fill="#fff"/>
  <path id="Path_29" data-name="Path 29" d="M636.849,533.849c0-2.495,1.447-4.132,4.023-4.132,2.368,0,3.8,1.382,3.941,4.228a.432.432,0,0,1-.477.509h-4.913c.144,1.177.748,1.892,1.781,1.892a1.382,1.382,0,0,0,1.257-.652.572.572,0,0,1,.619-.3l1.113.19c.333.049.493.271.35.588a3.569,3.569,0,0,1-3.514,1.924,3.9,3.9,0,0,1-4.181-4.245m5.405-.747c-.128-1.065-.572-1.653-1.382-1.653-.828,0-1.32.572-1.448,1.653Z" transform="translate(-620.674 -474.209)" fill="#fff"/>
  <path id="Path_30" data-name="Path 30" d="M655.664,530.573l-2.241,6.963a.564.564,0,0,1-.573.413h-2.432a.533.533,0,0,1-.556-.413l-2.241-6.978c-.095-.35.047-.557.414-.557h1.589a.509.509,0,0,1,.556.414l1.494,5.4,1.494-5.4a.51.51,0,0,1,.556-.414h1.527c.349,0,.508.207.413.573" transform="translate(-622.989 -474.27)" fill="#fff"/>
  <path id="Path_31" data-name="Path 31" d="M658.671,533.849c0-2.495,1.447-4.132,4.022-4.132,2.368,0,3.8,1.382,3.942,4.228a.432.432,0,0,1-.477.509h-4.913c.144,1.177.748,1.892,1.781,1.892a1.38,1.38,0,0,0,1.256-.652.573.573,0,0,1,.62-.3l1.113.19c.333.049.492.271.35.588a3.569,3.569,0,0,1-3.514,1.924,3.9,3.9,0,0,1-4.181-4.245m5.4-.747c-.127-1.065-.572-1.653-1.382-1.653-.827,0-1.32.572-1.447,1.653Z" transform="translate(-625.377 -474.209)" fill="#fff"/>
  <path id="Path_32" data-name="Path 32" d="M677.906,532.88v4.514a.444.444,0,0,1-.493.493h-1.431a.444.444,0,0,1-.493-.493v-4.323a1.25,1.25,0,0,0-1.272-1.383,1.368,1.368,0,0,0-1.334,1.526l.016,4.181a.444.444,0,0,1-.493.493h-1.43a.444.444,0,0,1-.493-.493v-6.962a.444.444,0,0,1,.493-.493h1.145a.452.452,0,0,1,.493.493v.731a2.556,2.556,0,0,1,2.448-1.447c1.733,0,2.845,1.24,2.845,3.163" transform="translate(-627.922 -474.209)" fill="#fff"/>
  <path id="Path_33" data-name="Path 33" d="M686.491,535.981v.985a.469.469,0,0,1-.508.509h-1.113a2.393,2.393,0,0,1-2.7-2.432l-.016-3.624h-.461a.444.444,0,0,1-.492-.493l-.016-.97a.451.451,0,0,1,.493-.493h.555l.653-1.59a.576.576,0,0,1,.588-.366h.588a.456.456,0,0,1,.508.493v1.463h1.256a.444.444,0,0,1,.493.493v.97a.444.444,0,0,1-.493.493h-1.24v3a.96.96,0,0,0,1.017,1.05h.382a.468.468,0,0,1,.508.508" transform="translate(-630.227 -473.733)" fill="#fff"/>
  <path id="Path_34" data-name="Path 34" d="M689.244,526.565a1.359,1.359,0,1,1,1.367,1.367,1.357,1.357,0,0,1-1.367-1.367m2.083,10.349H689.9a.445.445,0,0,1-.493-.493v-6.963a.445.445,0,0,1,.493-.493h1.431a.444.444,0,0,1,.493.493v6.963a.444.444,0,0,1-.493.493" transform="translate(-631.965 -473.235)" fill="#fff"/>
  <path id="Path_35" data-name="Path 35" d="M694.35,533.9a4.149,4.149,0,1,1,4.149,4.2,3.874,3.874,0,0,1-4.149-4.2m5.755,0c0-1.367-.619-2.241-1.605-2.241s-1.606.875-1.606,2.241c0,1.383.62,2.241,1.606,2.241s1.605-.858,1.605-2.241" transform="translate(-633.065 -474.209)" fill="#fff"/>
  <path id="Path_36" data-name="Path 36" d="M714.153,532.88v4.514a.444.444,0,0,1-.493.493h-1.431a.444.444,0,0,1-.493-.493v-4.323a1.25,1.25,0,0,0-1.272-1.383,1.369,1.369,0,0,0-1.335,1.526l.016,4.181a.444.444,0,0,1-.493.493h-1.431a.443.443,0,0,1-.492-.493v-6.962a.444.444,0,0,1,.492-.493h1.145a.451.451,0,0,1,.492.493v.731a2.557,2.557,0,0,1,2.449-1.447c1.732,0,2.845,1.24,2.845,3.163" transform="translate(-635.732 -474.209)" fill="#fff"/>
  <path id="Path_37" data-name="Path 37" d="M621.959,505.789H621.8a2.824,2.824,0,0,0-2.958,2.545l-.033.19H618.2a.43.43,0,0,0-.424.355l-.08.445a.43.43,0,0,0,.424.506h.457l-.469,2.923a.722.722,0,0,1-.845.68h-.31a.32.32,0,0,0-.362.293l-.219.883c-.047.264.355.537.912.537a2.422,2.422,0,0,0,2.548-2.129l.519-3.187h.734a.43.43,0,0,0,.424-.354l.08-.446a.431.431,0,0,0-.424-.506h-.58l.034-.19c.111-.592.468-.86.882-.86h.309a.429.429,0,0,0,.424-.355l.148-.824a.431.431,0,0,0-.424-.507" transform="translate(-616.261 -469.053)" fill="#fff"/>
  <path id="Path_38" data-name="Path 38" d="M626.893,509.1a3.342,3.342,0,0,0-3.237,2.724,2.2,2.2,0,0,0,2.288,2.713,3.338,3.338,0,0,0,3.26-2.713,2.205,2.205,0,0,0-2.311-2.724m.6,2.724a1.365,1.365,0,0,1-1.272,1.083.887.887,0,0,1-.894-1.083,1.377,1.377,0,0,1,1.284-1.083.88.88,0,0,1,.882,1.083" transform="translate(-617.822 -469.767)" fill="#fff"/>
  <path id="Path_39" data-name="Path 39" d="M635.782,509.1a1.857,1.857,0,0,0-1.9,1.025l.141-.383a.43.43,0,0,0-.424-.508h-.807a.431.431,0,0,0-.424.355l-.763,4.342a.43.43,0,0,0,.424.505h.9a.43.43,0,0,0,.424-.359l.229-1.349c.279-1.563.759-1.942,1.429-1.942a2.225,2.225,0,0,1,.46.039.432.432,0,0,0,.475-.259l.373-.861c.118-.272-.03-.606-.537-.606" transform="translate(-619.543 -469.767)" fill="#fff"/>
</svg>
